<svg width="500" height="500" viewBox="0 0 500 500" fill="none" xmlns="http://www.w3.org/2000/svg">
<path d="M328.5 238H285.75L214.25 129.75V238H171.5V62.5H214.25L285.75 171.25V62.5H328.5V238ZM305.25 319C305.25 329.167 302.917 338.5 298.25 347C293.583 355.333 286.417 362.083 276.75 367.25C267.083 372.417 255.083 375 240.75 375H214.25V438H171.5V262.5H240.75C254.75 262.5 266.583 264.917 276.25 269.75C285.917 274.583 293.167 281.25 298 289.75C302.833 298.25 305.25 308 305.25 319ZM237.5 341C245.667 341 251.75 339.083 255.75 335.25C259.75 331.417 261.75 326 261.75 319C261.75 312 259.75 306.583 255.75 302.75C251.75 298.917 245.667 297 237.5 297H214.25V341H237.5Z" fill="#3D3846"/>
<path d="M150 25.6V80.8H94V418.8H150V474.4H30V25.6H150Z" fill="#33D17A"/>
<path d="M350 25.6V80.8H406V418.8H350V474.4H470V25.6H350Z" fill="#33D17A"/>
</svg>
