<svg width="500" height="500" viewBox="0 0 500 500" fill="none" xmlns="http://www.w3.org/2000/svg">
<path d="M328.5 238H285.75L214.25 129.75V238H171.5V62.5H214.25L285.75 171.25V62.5H328.5V238ZM305.25 319C305.25 329.167 302.917 338.5 298.25 347C293.583 355.333 286.417 362.083 276.75 367.25C267.083 372.417 255.083 375 240.75 375H214.25V438H171.5V262.5H240.75C254.75 262.5 266.583 264.917 276.25 269.75C285.917 274.583 293.167 281.25 298 289.75C302.833 298.25 305.25 308 305.25 319ZM237.5 341C245.667 341 251.75 339.083 255.75 335.25C259.75 331.417 261.75 326 261.75 319C261.75 312 259.75 306.583 255.75 302.75C251.75 298.917 245.667 297 237.5 297H214.25V341H237.5Z" fill="#E66100"/>
<path d="M120 25.6C122.761 25.6 125 27.8386 125 30.6V75.8C125 78.5614 122.761 80.8 120 80.8H74C71.2386 80.8 69 83.0386 69 85.8V413.8C69 416.561 71.2386 418.8 74 418.8H120C122.761 418.8 125 421.039 125 423.8V469.4C125 472.161 122.761 474.4 120 474.4H10C7.23858 474.4 5 472.161 5 469.4V30.6C5 27.8386 7.23858 25.6 10 25.6H120Z" fill="#E66100"/>
<path d="M380 25.6C377.239 25.6 375 27.8386 375 30.6V75.8C375 78.5614 377.239 80.8 380 80.8H426C428.761 80.8 431 83.0386 431 85.8V413.8C431 416.561 428.761 418.8 426 418.8H380C377.239 418.8 375 421.039 375 423.8V469.4C375 472.161 377.239 474.4 380 474.4H490C492.761 474.4 495 472.161 495 469.4V30.6C495 27.8386 492.761 25.6 490 25.6H380Z" fill="#E66100"/>
</svg>
