<svg width="500" height="500" viewBox="0 0 500 500" fill="none" xmlns="http://www.w3.org/2000/svg">
<rect width="500" height="500" fill="#3D3846"/>
<path d="M199.25 239H160.775L96.425 141.575V239H57.95V81.05H96.425L160.775 178.925V81.05H199.25V239ZM246.489 100.4C239.739 100.4 234.189 98.45 229.839 94.55C225.639 90.5 223.539 85.55 223.539 79.7C223.539 73.7 225.639 68.75 229.839 64.85C234.189 60.8 239.739 58.775 246.489 58.775C253.089 58.775 258.489 60.8 262.689 64.85C267.039 68.75 269.214 73.7 269.214 79.7C269.214 85.55 267.039 90.5 262.689 94.55C258.489 98.45 253.089 100.4 246.489 100.4ZM265.614 113.45V239H227.139V113.45H265.614ZM285.847 176.225C285.847 163.175 288.472 151.775 293.722 142.025C299.122 132.275 306.547 124.775 315.997 119.525C325.597 114.275 336.547 111.65 348.847 111.65C364.597 111.65 377.722 115.775 388.222 124.025C398.872 132.275 405.847 143.9 409.147 158.9H368.197C364.747 149.3 358.072 144.5 348.172 144.5C341.122 144.5 335.497 147.275 331.297 152.825C327.097 158.225 324.997 166.025 324.997 176.225C324.997 186.425 327.097 194.3 331.297 199.85C335.497 205.25 341.122 207.95 348.172 207.95C358.072 207.95 364.747 203.15 368.197 193.55H409.147C405.847 208.25 398.872 219.8 388.222 228.2C377.572 236.6 364.447 240.8 348.847 240.8C336.547 240.8 325.597 238.175 315.997 232.925C306.547 227.675 299.122 220.175 293.722 210.425C288.472 200.675 285.847 189.275 285.847 176.225ZM449.687 311.9C449.687 321.05 447.587 329.45 443.387 337.1C439.187 344.6 432.737 350.675 424.037 355.325C415.337 359.975 404.537 362.3 391.637 362.3H367.787V419H329.312V261.05H391.637C404.237 261.05 414.887 263.225 423.587 267.575C432.287 271.925 438.812 277.925 443.162 285.575C447.512 293.225 449.687 302 449.687 311.9ZM388.712 331.7C396.062 331.7 401.537 329.975 405.137 326.525C408.737 323.075 410.537 318.2 410.537 311.9C410.537 305.6 408.737 300.725 405.137 297.275C401.537 293.825 396.062 292.1 388.712 292.1H367.787V331.7H388.712Z" fill="white"/>
<path d="M48.5 293.9H110.825L151.325 342.5L110.825 390.875H48.5L89 342.5L48.5 293.9ZM160.341 293.9H222.666L263.166 342.5L222.666 390.875H160.341L200.841 342.5L160.341 293.9Z" fill="#33D17A"/>
<path d="M315.362 441.5H455.762V452.75H315.362V441.5Z" fill="white"/>
</svg>
